<?xml version="1.0" encoding="UTF-8" standalone="no"?>
<svg
   id="Layer_1"
   data-name="Layer 1"
   viewBox="0 0 105.54 98.079999"
   version="1.1"
   sodipodi:docname="shakenfist-logo.svg"
   width="105.54"
   height="98.080002"
   inkscape:version="1.2.2 (b0a8486, 2022-12-01)"
   xmlns:inkscape="http://www.inkscape.org/namespaces/inkscape"
   xmlns:sodipodi="http://sodipodi.sourceforge.net/DTD/sodipodi-0.dtd"
   xmlns="http://www.w3.org/2000/svg"
   xmlns:svg="http://www.w3.org/2000/svg">
  <sodipodi:namedview
     id="namedview270"
     pagecolor="#ffffff"
     bordercolor="#000000"
     borderopacity="0.25"
     inkscape:showpageshadow="2"
     inkscape:pageopacity="0.0"
     inkscape:pagecheckerboard="0"
     inkscape:deskcolor="#d1d1d1"
     showgrid="false"
     inkscape:zoom="9.2273133"
     inkscape:cx="52.561345"
     inkscape:cy="55.541628"
     inkscape:window-width="1390"
     inkscape:window-height="1205"
     inkscape:window-x="0"
     inkscape:window-y="25"
     inkscape:window-maximized="0"
     inkscape:current-layer="Layer_1" />
  <defs
     id="defs165">
    <style
       id="style160">.cls-1{fill:none;}.cls-2{fill:#b5bdcb;}.cls-3{fill:#134656;}.cls-4{fill:#e6f5fc;}.cls-5{fill:#aabcd5;}.cls-6{fill:#b8d5f0;}.cls-13,.cls-7{fill:#fff;}.cls-8{fill:#f9f6ef;}.cls-9{clip-path:url(#clip-path);}.cls-10{fill:#faf3db;}.cls-11{fill:#f3e4c0;}.cls-12{fill:#f1d687;}.cls-13{opacity:0.85;}.cls-14{fill:#8593a7;}.cls-15{fill:#f89c1c;}</style>
    <clipPath
       id="clip-path"
       transform="translate(-7144.21 -7143.98)">
      <ellipse
         class="cls-1"
         cx="7199.0601"
         cy="7193.1001"
         rx="50.669998"
         ry="47.09"
         id="ellipse162" />
    </clipPath>
  </defs>
  <ellipse
     class="cls-2"
     cx="52.77"
     cy="49.040001"
     rx="52.77"
     ry="49.040001"
     id="ellipse167" />
  <ellipse
     class="cls-3"
     cx="52.82"
     cy="48.709999"
     rx="50.669998"
     ry="47.09"
     id="ellipse169" />
  <path
     class="cls-4"
     d="m 28.669999,12.35 a 2.26,2.26 0 0 0 -0.48,0.89 2.67,2.67 0 0 0 2.18,3.07 c -0.73,1.12 -1.58,2.86 -0.78,4.13 a 3.72,3.72 0 0 0 3.91,1.36 9.2,9.2 0 0 0 3.6,-2.31 7,7 0 0 0 10.06,1.17 5.94,5.94 0 0 0 8,-0.37 5.18,5.18 0 0 0 5.88,0.43 c 2.88,2.21 9.11,0.29 10.58,-1.49 0.85,0.89 4.57,0.89 5.45,-0.53 a 11.26,11.26 0 0 1 2.17,0 c 0.73,0 1.56,-0.36 1.7,-1.07 0.14,-0.71 -0.65,-1.44 -1.42,-1.47 a 4.07,4.07 0 0 0 -2.17,0.76 3.82,3.82 0 0 0 -4.19,-3.43 1.87,1.87 0 0 0 -2.49,-1.84 5.15,5.15 0 0 0 -6.68,-5.6999998 c 0.27,-1.39 0.52,-2.94 -0.24,-4.14 a 4,4 0 0 0 -1.82,-1.43000005 8.77,8.77 0 0 0 -7.66,0.73000005 c -1.69,0.95 -3.26,2.54 -3.3,4.48 a 8.9,8.9 0 0 0 -4.95,0.46 7.33,7.33 0 0 0 -3.07,2.71 5.92,5.92 0 0 0 -8.11,2.5699998 7.43,7.43 0 0 0 -3.94,-0.2 4.17,4.17 0 0 0 -2.23,1.22 z"
     id="path171" />
  <path
     class="cls-5"
     d="m 36.979999,17.94 c -0.29,1.92 -4.88,3.94 -7.42,2.44 v 0.06 a 3.72,3.72 0 0 0 3.91,1.36 9.2,9.2 0 0 0 3.6,-2.31 7,7 0 0 0 10.06,1.17 5.94,5.94 0 0 0 8,-0.37 5.18,5.18 0 0 0 5.88,0.43 c 2.88,2.21 9.11,0.29 10.58,-1.49 0.85,0.89 4.57,0.89 5.45,-0.53 a 11.26,11.26 0 0 1 2.17,0 c 0.73,0 1.56,-0.36 1.7,-1.07 v 0 c -0.5,0.84 -3.09,1.13 -4.47,-0.16 -0.93,1.16 -3.33,1.34 -4.62,0.47 a 4.36,4.36 0 0 0 1.22,-0.45 4.22,4.22 0 0 0 1.41,-1.24 8.19,8.19 0 0 1 -1.59,0.86 5.87,5.87 0 0 1 -1.54,0.37 v 0 l -0.08,0.06 h -0.05 a 5.75,5.75 0 0 1 -1.75,-0.13 7.38,7.38 0 0 1 -1.68,-0.65 3.82,3.82 0 0 0 1.56,1 4,4 0 0 0 1,0.24 12.43,12.43 0 0 1 -6.69,0.43 6.35,6.35 0 0 1 -3.09,-1.61 c -2.13,1.59 -8,1.73 -10.51,-0.62 a 9.31,9.31 0 0 0 6.19,-4.35 18.42,18.42 0 0 1 -3.21,2.13 11.44,11.44 0 0 1 -3.51,1.13 10.31,10.31 0 0 1 -3.67,-0.12 13.76,13.76 0 0 1 -3.57,-1.35 7.83,7.83 0 0 0 3.32,2.22 7.94,7.94 0 0 0 1.81,0.42 c -0.95,4.27 -8.32,4.37 -10.41,1.66 z"
     id="path173" />
  <path
     class="cls-6"
     d="m 30.369999,16.31 a 7.63,7.63 0 0 0 -0.71,1.31 2.4,2.4 0 0 1 1.44,-1.09 c 1,-0.28 5.13,-0.24 7.23,-1.44 -1.54,0.59 -3,0.41 -3.72,-0.33 -0.56,0.93 -1.47,1.14 -3,1 -2.15,-0.27 -3.53,-0.9 -3.46,-2.48 a 2.67,2.67 0 0 0 2.22,3.03 z"
     id="path175" />
  <path
     class="cls-7"
     d="m 35.389999,13.46 c -0.27,-1.94 1.89,-3.21 2.65,-3.5299998 2.08,-0.87 3.76,-0.51 3.82,0.6799998 v 0 a 9.05,9.05 0 0 1 3.27,-1.6299998 18.6,18.6 0 0 1 3.55,-0.63 18.25,18.25 0 0 1 3.62,0.05 11.48,11.48 0 0 1 3.55,1 6.8,6.8 0 0 0 -3.36,-1.92 h -0.12 c -0.53,-0.41 -0.88,-0.86 -0.75,-1.28 0.72,-2.38 5.63,-2.71 7.63,-2.43 2.2,0.31 3.72,1.81 3.59,3.16 a 5.08,5.08 0 0 0 -1.37,0.54 3.6,3.6 0 0 0 -1.61,1.73 8.28,8.28 0 0 1 2,-0.85 8.62,8.62 0 0 1 2,-0.33 7.58,7.58 0 0 1 2,0.15 12.86,12.86 0 0 1 2.08,0.64 5.23,5.23 0 0 1 1.5,3.3199998 5.08,5.08 0 0 0 -3,2.26 5.19,5.19 0 0 1 7.83,0.83 c 0.2,-0.4 0.9,-0.54 1.6,0 a 3.87,3.87 0 0 1 1.33,2 c 1.26,-0.58 2.61,-0.9 3.31,-0.47 a 1.59,1.59 0 0 0 -1.09,-0.5 4.07,4.07 0 0 0 -2.17,0.76 3.82,3.82 0 0 0 -4.19,-3.43 1.87,1.87 0 0 0 -2.49,-1.84 5.15,5.15 0 0 0 -6.68,-5.6999998 c 0.27,-1.39 0.52,-2.94 -0.24,-4.14 a 4,4 0 0 0 -1.82,-1.43000005 8.77,8.77 0 0 0 -7.66,0.73000005 c -1.69,0.95 -3.26,2.54 -3.3,4.48 a 8.9,8.9 0 0 0 -4.95,0.46 7.33,7.33 0 0 0 -3.07,2.71 5.92,5.92 0 0 0 -8.11,2.5699998 7.43,7.43 0 0 0 -3.94,-0.2 4.09,4.09 0 0 0 -2.15,1.16 5.3,5.3 0 0 1 6.74,1.08 z"
     id="path177" />
  <path
     class="cls-4"
     d="m 65.579999,32.38 a 11.15,11.15 0 0 0 1.15,-0.1 5.22,5.22 0 0 0 0.64,2 4.51,4.51 0 0 0 3.18,1.86 4.91,4.91 0 0 0 3.34,-1 3.57,3.57 0 0 0 1.37,1.77 c 2,1.19 4.91,0.45 6.51,-1 1.18,2 2.65,2.49 4.91,2.54 a 5.37,5.37 0 0 0 3.05,-0.93 3,3 0 0 1 4.26,-2.87 3.64,3.64 0 0 0 2,-1.76 2.86,2.86 0 0 0 2.72,-1.08 3.51,3.51 0 0 0 1,-2.61 5,5 0 0 0 -0.89,-2.58 3.4,3.4 0 0 0 -4.91,-0.5 4.48,4.48 0 0 0 -1.89,-2.64 3.46,3.46 0 0 0 -1.75,-0.48 6.65,6.65 0 0 0 -1.58,0.28 1.94,1.94 0 0 0 -1,-1.64 2.39,2.39 0 0 0 -1.81,-0.35 4.44,4.44 0 0 0 -0.62,-0.77 4.19,4.19 0 0 0 -5.31,-0.38 5.23,5.23 0 0 0 -1.73,2.53 5.56,5.56 0 0 0 -1.09,-0.48 6.1,6.1 0 0 0 -1,-0.26 c -3.22,-0.66 -8.44,0.45 -9.12,4.31 a 3.64,3.64 0 0 0 -3,-0.15 3.76,3.76 0 0 0 -2,3.69 c 0.21,1.96 1.89,2.67 3.57,2.6 z"
     id="path179" />
  <path
     class="cls-5"
     d="m 65.579999,32.38 a 11.15,11.15 0 0 0 1.15,-0.1 5.22,5.22 0 0 0 0.64,2 4.51,4.51 0 0 0 3.18,1.86 4.91,4.91 0 0 0 3.34,-1 3.57,3.57 0 0 0 1.37,1.77 c 2,1.19 4.91,0.45 6.51,-1 1.18,2 2.65,2.49 4.91,2.54 a 5.37,5.37 0 0 0 3.05,-0.93 3,3 0 0 1 4.26,-2.87 3.64,3.64 0 0 0 2,-1.76 2.86,2.86 0 0 0 2.72,-1.08 3.72,3.72 0 0 0 1,-2.2 2.33,2.33 0 0 1 -1.31,1.34 6.14,6.14 0 0 1 -1.48,0.32 5.32,5.32 0 0 1 -1.44,-0.1 4.52,4.52 0 0 1 -1.33,-0.53 4,4 0 0 1 -1.09,-1 2.48,2.48 0 0 0 0.81,1.39 3.75,3.75 0 0 0 0.62,0.42 c 0,0.78 -0.8,1.29 -1.47,1.53 a 2.9,2.9 0 0 1 -3,-1.06 c -0.9,2.49 -6.24,-0.39 -3.91,-1.35 0.65,-0.18 1.64,-0.27 2.44,-0.52 a 3.55,3.55 0 0 0 2,-1.47 4.73,4.73 0 0 1 -2.19,0.91 8,8 0 0 1 -2.34,0 8.26,8.26 0 0 1 -4.36,-1.82 v 0 l 0.13,0.21 c 1.18,2 2.22,6.5 -0.13,7.14 -2.09,0.56 -3.59,-0.28 -3.87,-1.69 a 3.75,3.75 0 0 1 0.95,-2.94 3.88,3.88 0 0 0 0.26,-0.31 9.72,9.72 0 0 1 -2.78,1.16 11.6,11.6 0 0 1 -2.93,0.32 10.2,10.2 0 0 1 -2.9,-0.45 5.9,5.9 0 0 1 -2.54,-1.52 4.43,4.43 0 0 0 2.28,2.19 7.28,7.28 0 0 0 2.24,0.64 c -0.62,3 -5.2,1.58 -5.34,-1.79 -0.86,1.11 -4.24,1.08 -5,-0.95 a 0.17,0.17 0 0 1 0,0.07 c 0.19,1.99 1.87,2.7 3.55,2.63 z"
     id="path181" />
  <path
     class="cls-8"
     d="m 91.479999,24.59 a 3.88,3.88 0 0 1 2.07,2.57 c 1.3,-1.2 4.35,-0.86 5.71,0.35 a 4.81,4.81 0 0 0 -0.47,-0.82 3.4,3.4 0 0 0 -4.91,-0.5 4.48,4.48 0 0 0 -1.89,-2.64 3.46,3.46 0 0 0 -1.75,-0.48 6.65,6.65 0 0 0 -1.58,0.28 1.94,1.94 0 0 0 -1,-1.64 2.39,2.39 0 0 0 -1.81,-0.35 4.44,4.44 0 0 0 -0.62,-0.77 4.19,4.19 0 0 0 -5.31,-0.38 5.23,5.23 0 0 0 -1.73,2.53 5.56,5.56 0 0 0 -1.09,-0.48 6.1,6.1 0 0 0 -1,-0.26 c -3.22,-0.66 -8.44,0.45 -9.12,4.31 a 3.64,3.64 0 0 0 -3,-0.15 3.19,3.19 0 0 0 -1.61,1.68 3.44,3.44 0 0 1 2.44,-1.27 2.68,2.68 0 0 1 2.61,1 c 0.22,-1.78 2.5,-3.66 4.46,-3.81 1.12,-0.08 1.8,0.28 1.76,1 l -0.6,0.11 a 5.91,5.91 0 0 0 -1.73,0.69 c 0.63,0 1.22,0 1.81,0 0.59,0 1.17,0 1.76,0 l 1.75,0.06 c 0.59,0 1.18,0.07 1.81,0.07 a 5.65,5.65 0 0 0 -1.7,-0.76 l -0.34,-0.08 c -0.12,-0.55 0.71,-1 1.67,-1 1.85,-0.05 2.3,1.27 2.89,2 a 2.69,2.69 0 0 1 1.93,-3.11 3.06,3.06 0 0 1 3.48,1.15 1.05,1.05 0 0 1 1.24,-0.32 1,1 0 0 1 0.57,1.14 3.89,3.89 0 0 1 3.3,-0.12 z"
     id="path183" />
  <path
     class="cls-4"
     d="m 13.959999,22.77 c 3.34,-0.31 6.38,1.5 6.33,5.12 a 5.43,5.43 0 0 1 3.6,-0.43 3.35,3.35 0 0 1 2.48,2.48 3.11,3.11 0 0 1 2.27,-0.4 1.72,1.72 0 0 1 1.25,1.8 3.65,3.65 0 0 1 -0.74,2.15 5.63,5.63 0 0 1 -1.44,1.44 2.94,2.94 0 0 1 -2.08,0.45 1.75,1.75 0 0 1 -1.25,-1.22 2.71,2.71 0 0 1 -1.7,1.84 1.55,1.55 0 0 1 -2.07,-0.91 7.92,7.92 0 0 1 -6.54,1.89 2.76,2.76 0 0 1 -2,-1.71 13.42,13.42 0 0 1 -3.8899998,1.64 4.45,4.45 0 0 1 -3.95,-1 4.73,4.73 0 0 1 -1.07,-5.79 c 1.15,-1.83 3.48,-2.14 5.28,-1.77 a 6.92,6.92 0 0 1 0.12,-1.93 4.62,4.62 0 0 1 2.3699998,-2.78 8,8 0 0 1 3.03,-0.87 z"
     id="path185" />
  <path
     class="cls-5"
     d="m 25.219999,33.28 a 3.55,3.55 0 0 1 0.36,-1.28 10.22,10.22 0 0 1 -2,0.78 6.23,6.23 0 0 1 -2,0.21 5.57,5.57 0 0 1 -2,-0.47 7.8,7.8 0 0 1 -1.77,-1.13 4.45,4.45 0 0 0 2.76,2.08 c -0.17,1.16 -2.26,2 -3.82,2 a 3.78,3.78 0 0 1 -3,-1.48 3.1,3.1 0 0 1 -3.9999998,-0.34 5,5 0 0 0 1.9999998,-0.38 5,5 0 0 0 1.8,-1.25 10.39,10.39 0 0 1 -2,0.78 6.32,6.32 0 0 1 -1.9999998,0.21 5.62,5.62 0 0 1 -2,-0.47 8,8 0 0 1 -1.77,-1.13 4.45,4.45 0 0 0 1.54,1.57 4.51,4.51 0 0 0 1.7,0.61 3.67,3.67 0 0 1 -6.37,-0.15 5.7,5.7 0 0 0 1.48,2.49 4.45,4.45 0 0 0 3.95,1 13.42,13.42 0 0 0 3.8899998,-1.64 2.76,2.76 0 0 0 2,1.71 7.92,7.92 0 0 0 6.54,-1.89 1.55,1.55 0 0 0 2.07,0.91 2.71,2.71 0 0 0 1.7,-1.84 1.75,1.75 0 0 0 1.25,1.22 2.94,2.94 0 0 0 2.08,-0.45 5.63,5.63 0 0 0 1.44,-1.44 4.25,4.25 0 0 0 0.46,-0.81 c -1.46,2.16 -4.35,2.43 -4.29,0.58 z"
     id="path187" />
  <path
     class="cls-8"
     d="m 23.889999,27.46 a 5.43,5.43 0 0 0 -3.6,0.43 c 0.05,-3.62 -3,-5.43 -6.33,-5.12 a 8,8 0 0 0 -3,0.87 4.62,4.62 0 0 0 -2.3699998,2.78 6.73,6.73 0 0 0 -0.12,1.85 l -0.19,0.05 c -1.78,-0.31 -4,0 -5.09,1.8 l -0.19,0.35 c 1.05,-1.34 3.06,-2 3.32,-1.17 a 2.12,2.12 0 0 0 -0.38,0.47 8,8 0 0 1 1.85,-0.41 c 0.61,-0.07 1.21,-0.11 1.82,-0.13 0.6099998,-0.02 1.2199998,0 1.8299998,0 a 10.67,10.67 0 0 1 1.89,0.25 3.61,3.61 0 0 0 -1.72,-1.09 5.49,5.49 0 0 0 -1.14,-0.23 7.47,7.47 0 0 1 4.9,-1.5 5.35,5.35 0 0 1 4.17,1.39 3.91,3.91 0 0 0 -1.58,1.37 6.2,6.2 0 0 1 5.3,-0.85 c 0.88,0.33 1.76,1 1.8,1.9 a 0.94,0.94 0 0 1 1.39,0.33 c 1.47,-1.31 3.29,-0.75 3.47,0.65 0,0 0,-0.09 0,-0.13 a 1.72,1.72 0 0 0 -1.25,-1.8 3.11,3.11 0 0 0 -2.27,0.4 3.35,3.35 0 0 0 -2.51,-2.46 z"
     id="path189" />
  <g
     class="cls-9"
     clip-path="url(#clip-path)"
     id="g239"
     transform="translate(-1.9500008,-0.15999985)">
    <path
       class="cls-10"
       d="m 7193.24,7222.15 2.94,-2.27 -1.69,-1.65 19.49,-9.18 2,2.18 11.49,18 -2.3,4.74 c 0,0 -10.7,4.89 -16.36,5.2 -5.66,0.31 -15.57,-17.02 -15.57,-17.02 z"
       transform="translate(-7144.21,-7143.98)"
       id="path191" />
    <path
       class="cls-11"
       d="m 7193.91,7217.5 -3.05,-9.71 -0.77,-1.07 -1.13,0.22 -9.42,-8.47 -1.83,-2.76 c 0,0 -4.28,-3.05 -4.89,-3.51 a 4.3,4.3 0 0 0 -1.07,-0.61 c 0,0 -1.38,-1.07 0.15,-3.21 1.53,-2.14 2,-2.3 2,-2.3 l -1.53,-1.53 v -1.22 l 3.67,-4.74 0.91,0.31 c 0,0 -2.61,-1.67 -1.83,-2.76 0.78,-1.09 5.66,-6.11 5.66,-6.11 l 2.6,2 0.61,-1.69 c 0,0 2.14,-5 4,-5 1.86,0 4.28,2.75 4.28,2.75 l 4,7.95 5.81,-2.75 8.71,8.87 0.92,9 -5.2,10.7 4.74,7.71 z"
       transform="translate(-7144.21,-7143.98)"
       id="path193" />
    <polygon
       class="cls-7"
       points="76.14,70.55 53.38,76.17 51.96,75.9 72.93,64.62 "
       id="polygon195" />
    <path
       class="cls-2"
       d="m 7219.37,7211.24 -16.63,7.07 1.55,4.42 a 6.64,6.64 0 0 0 2.9,2.49 c 2.05,1 3.07,2.14 6,1.29 4.44,-1.27 5.55,0.14 5.36,1.21 -0.76,4.32 7.06,11 7.06,11 0,0 8.58,-3.53 7,-9.56 -1.58,-6.03 -13.24,-17.92 -13.24,-17.92 z"
       transform="translate(-7144.21,-7143.98)"
       id="path197" />
    <path
       class="cls-12"
       d="m 7203.21,7204.48 5.24,6.54 -1.37,0.7 a 28.21,28.21 0 0 1 -4.5,-6.89 c -0.09,-0.22 0.63,-0.35 0.63,-0.35 z"
       transform="translate(-7144.21,-7143.98)"
       id="path199" />
    <path
       class="cls-12"
       d="m 7194.25,7189.32 c 0,0 -2.15,5.78 -1.18,6.75 l 1,1 1.06,-0.36 c 0,0 -0.8,-6.25 -0.88,-7.39 z"
       transform="translate(-7144.21,-7143.98)"
       id="path201" />
    <polygon
       class="cls-13"
       points="77.99,77.06 83.05,84.34 82.44,86.36 72.43,70.18 73.94,69.37 75.76,72.4 "
       id="polygon203" />
    <path
       class="cls-12"
       d="m 7179.37,7190.32 5.78,5.05 -1.51,0.55 a 23.19,23.19 0 0 1 -5,-5.33 c -0.06,-0.17 0.73,-0.27 0.73,-0.27 z"
       transform="translate(-7144.21,-7143.98)"
       id="path205" />
    <path
       class="cls-12"
       d="m 7192.61,7182.5 5.72,1.26 -3.44,2.93 c 0,0 -1.16,0 -2.28,-2.93 a 10.52,10.52 0 0 1 0,-1.26 z"
       transform="translate(-7144.21,-7143.98)"
       id="path207" />
    <path
       class="cls-12"
       d="m 7188.05,7201.38 c 0,0 1.55,3.05 4.51,3.44 2.96,0.39 -2.87,1.21 -3.23,1.21 a 22.72,22.72 0 0 1 -4.86,-5.26 29.16,29.16 0 0 1 3.58,0.61 z"
       transform="translate(-7144.21,-7143.98)"
       id="path209" />
    <path
       class="cls-2"
       d="m 7192,7221.86 a 35,35 0 0 1 3.19,-1.77 c 1.71,-0.83 6.27,-1.07 6.27,-1.07 l -1.88,2.22 c 0,0 2.65,7 6.06,11.17 a 49.48,49.48 0 0 1 6.07,10.55 l -3.6,4.34 -3.12,-2.57 -5,-7.56 z"
       transform="translate(-7144.21,-7143.98)"
       id="path211" />
    <path
       class="cls-14"
       d="m 7224.45,7221.39 c -0.59,-1 -1.88,-4.23 -2.67,-5.5 -0.79,-1.27 -4.46,-6.58 -4.46,-6.58 l -1.9,0.89 v 0 l -1.2,-2.25 -20.88,9.81 1.28,2.26 v 0 l -2.71,1.28 -0.2,0.49 c 2.68,7 9.37,19.58 9.37,19.58 l 2.91,1.34 c 0,0 -5.05,-8.15 -6.34,-10.61 -1.29,-2.46 -5.15,-10.31 -5.15,-10.31 l 24.46,-11.69 3.77,5.9 c 0.49,0.78 2.87,5.5 3.16,5.89 0.29,0.39 4.06,6 4.06,6 l 0.4,-0.29 c 0,0 -3.35,-5.23 -3.9,-6.21 z m -30,-3.16 19.49,-9.18 2,2.18 -19.28,9.11 z"
       transform="translate(-7144.21,-7143.98)"
       id="path213" />
    <path
       class="cls-14"
       d="m 7198.75,7223 a 2.55,2.55 0 1 0 2.62,2.54 2.58,2.58 0 0 0 -2.62,-2.54 z m 0,3.93 a 1.51,1.51 0 1 1 1.81,-1.47 1.67,1.67 0 0 1 -1.81,1.43 z"
       transform="translate(-7144.21,-7143.98)"
       id="path215" />
    <path
       class="cls-15"
       d="m 7212.05,7191.23 a 34.39,34.39 0 0 0 -0.82,-5.77 7,7 0 0 1 0,-2.24 c 0,-0.47 -0.71,-1.18 -1.3,-2.12 a 36.14,36.14 0 0 0 -4.12,-4.24 c -0.71,-0.59 -3.18,-3.53 -3.18,-3.53 l -0.83,-0.12 -5.3,2.71 -0.35,-0.59 c 0,0 -2.36,-5.07 -2.95,-5.89 a 23.94,23.94 0 0 0 -2.24,-2.95 11.44,11.44 0 0 0 -2.71,-1.65 l -1.41,0.83 -1.18,1.18 a 10.25,10.25 0 0 0 -1.88,2.82 l -0.22,2.07 c 0,0 -0.37,-0.42 -0.73,-0.77 a 23.14,23.14 0 0 0 -2,-1.41 c 0,0 -4.95,4.36 -5.18,4.83 a 7.18,7.18 0 0 0 -0.83,2.24 c 0,0.58 1.14,2 1.14,2 -0.47,-0.23 -4.08,5 -4.08,5 v 1.06 c 0,0 1,1.38 1.41,1.42 l -1.53,2 a 3.92,3.92 0 0 0 -0.35,4.12 l 1.18,0.24 4.59,3.53 2.24,3.3 c 0,0 7.54,6.36 8.83,7.42 a 3.78,3.78 0 0 0 2,1.06 c -0.24,0.48 3.65,9.66 3.65,9.66 l 0.82,-0.58 -2.12,-4.83 -1.65,-3.66 0.36,-0.94 a 0.75,0.75 0 0 0 -0.24,-0.71 c -0.35,-0.35 -0.94,0 -2,-0.11 -1.06,-0.11 -1.18,-1.3 -1.65,-1.77 -0.47,-0.47 -5.3,-4.71 -6.36,-5.42 a 10.28,10.28 0 0 1 -2.12,-2.24 l 2.82,1.18 a 3.4,3.4 0 0 0 0.95,-0.35 24.27,24.27 0 0 0 1.88,-1.77 c 0.59,-0.59 0.12,-0.71 0.12,-0.71 l 1.18,-0.12 a 8.05,8.05 0 0 0 1.65,-1.06 6.31,6.31 0 0 0 1.18,-1.29 1.81,1.81 0 0 0 0,-1.42 2.28,2.28 0 0 0 0.94,0 7.08,7.08 0 0 0 2.35,-2.12 c 0.59,-0.94 1.54,-2.12 1.54,-2.71 a 6.44,6.44 0 0 0 -1.54,-2.71 c -0.59,-0.58 -3.65,-5.53 -4.24,-6.36 -0.59,-0.83 -4,-5.42 -4,-5.42 0,0 0.35,-1.06 0.47,-1.53 a 7.14,7.14 0 0 1 1.29,-2.47 c 0.48,-0.35 2.83,-2.59 2.83,-2.59 a 17.43,17.43 0 0 0 2.24,1.65 c 1.77,1.17 2.24,3.77 2.47,4.35 0.23,0.58 2.6,4.36 2.6,4.36 l -1.18,1.18 -0.12,0.71 a 6.54,6.54 0 0 0 2,-1.06 c 0.59,-0.59 5.78,-2.83 5.78,-2.83 l 0.7,0.83 c 0,0 3.42,3.88 3.89,4.24 0.47,0.36 3.18,3.18 3.18,3.65 0,0.47 0.47,3.18 0.47,3.53 0,0.35 0.59,4.83 0.59,4.83 0,0 -0.71,1.89 -0.94,2.48 -0.23,0.59 -3.3,6.12 -4,7.54 -0.7,1.42 0.24,1.88 0.24,1.88 l 4.24,6.6 1.06,-0.47 a 16.19,16.19 0 0 1 -1.41,-2 c -0.71,-1.18 -3.42,-5.19 -3.42,-5.19 a 14.57,14.57 0 0 1 1.65,-3.89 59.24,59.24 0 0 0 3.65,-6.89 z m -29.47,6 c -0.22,0.14 -0.57,0.49 -0.88,0.4 -0.31,-0.09 -3.62,-1.94 -3.8,-2 -0.18,-0.06 -4.39,-3.54 -5.48,-3.84 l -0.48,-0.13 c -0.31,-0.49 0,-1.33 0,-1.86 a 5.79,5.79 0 0 1 1.19,-1.77 6.27,6.27 0 0 0 0.71,-1.14 9.94,9.94 0 0 0 1.59,1.19 13.55,13.55 0 0 1 1.9,1.46 28.06,28.06 0 0 1 2.56,1.9 c 0.36,0.39 1.55,1.45 1.9,1.81 a 12.7,12.7 0 0 1 1,1.1 c 0.08,0.13 1.45,1.11 1.45,1.11 0,0 -1.43,1.59 -1.66,1.72 z m 5.39,-4.55 c -0.35,0.71 -0.7,0.75 -1.19,1.2 -0.49,0.45 -0.93,1.23 -1.85,0.88 -0.92,-0.35 -3,-2.43 -3.67,-3.18 -0.67,-0.75 -4.29,-3.27 -4.6,-3.49 a 20.84,20.84 0 0 1 -1.9,-1.37 c -0.39,-0.4 -1.23,-1.06 -1.32,-1.19 -0.09,-0.13 -1.19,-0.67 -1.11,-0.93 a 39.6,39.6 0 0 1 2.7,-3.49 c 0.22,-0.18 0.35,-0.93 1,-1 a 1.9,1.9 0 0 1 1.32,0.58 c 0.58,0.53 1.37,1.06 2.48,1.9 1.11,0.84 3.57,3.26 4.37,4 a 35.57,35.57 0 0 1 3.75,4.29 c 0.14,0.7 0.38,1.05 0.05,1.75 z m -2.6,-16.87 c 0.48,0.79 2,3.18 2.38,3.84 0.38,0.66 2.43,3.45 2.87,4 a 27.14,27.14 0 0 1 1.95,2.83 c 0.13,0.35 0.71,0.35 0.13,1.15 a 16.29,16.29 0 0 1 -2.25,2.74 c -0.44,0.22 -1.46,0.66 -1.46,0.66 0,0 0,-0.22 -0.4,-0.75 -0.4,-0.53 -3.66,-4 -4.42,-4.77 -0.76,-0.77 -2.87,-2.52 -3.49,-3.27 a 25,25 0 0 0 -3.53,-2.57 2.06,2.06 0 0 1 -0.53,-0.75 c 0,-0.31 -0.13,-0.17 -0.49,-0.84 -0.36,-0.67 -1.23,-1.54 -0.44,-2.56 0.79,-1.02 5.35,-4.9 5.35,-4.9 a 23.73,23.73 0 0 1 2.16,2 c 0.53,0.66 1.68,2.38 2.17,3.14 z"
       transform="translate(-7144.21,-7143.98)"
       id="path217" />
    <path
       class="cls-15"
       d="m 7193.51,7179 -1.28,1.06 a 1.92,1.92 0 0 0 1,0.62 c 0.75,0.26 1.1,0.39 1.5,0 0.4,-0.39 1,-0.53 1,-0.71 a 5.11,5.11 0 0 0 -0.31,-1.1 l 0.35,-0.35 a 1.28,1.28 0 0 1 0.49,0.57 c 0.17,0.4 0.35,1.19 0.13,1.37 -0.22,0.18 -1.55,1 -1.55,1 a 4.23,4.23 0 0 1 -2.38,-0.27 c 0,0 -0.13,0.4 0.62,0.88 a 4.5,4.5 0 0 0 1.9,0.89 c 0.66,0.09 2,0.17 2,0.17 0,0 0,0.71 -0.27,0.75 a 7.16,7.16 0 0 1 -2.56,-0.35 c -0.66,-0.31 -2.17,-1.37 -2.39,-2.07 a 5.49,5.49 0 0 1 -0.4,-1.6 c 0.09,-0.13 1.11,-0.83 1.29,-1 0.18,-0.17 1.35,-0.29 0.86,0.14 z"
       transform="translate(-7144.21,-7143.98)"
       id="path219" />
    <path
       class="cls-15"
       d="m 7197.35,7183.34 a 4.49,4.49 0 0 1 1.95,-0.84 c 0.35,0 0.79,-0.4 0.75,-0.09 a 2,2 0 0 1 -0.93,1.1 2.55,2.55 0 0 0 -1.19,0.84 15.77,15.77 0 0 0 -2.43,3.76 13.24,13.24 0 0 0 -1,5.17 c 0.09,0.75 0.18,2 0.27,2.43 0.09,0.43 0.48,0.79 0.22,0.92 -0.26,0.13 -1.15,0.05 -1.11,-2.47 0.04,-2.52 0.58,-5.7 1.73,-7.51 a 8.37,8.37 0 0 1 -1.55,0.57 c -0.31,0 -0.53,-0.35 -0.31,-0.57 0.22,-0.22 0.62,0 1.33,-0.44 a 9,9 0 0 0 1.94,-1.42 c 0.22,-0.3 0.57,-0.92 0.57,-0.92 0,0 -0.72,-0.18 -0.24,-0.53 z"
       transform="translate(-7144.21,-7143.98)"
       id="path221" />
    <path
       class="cls-12"
       d="m 7213.65,7178 c 0,0 0.45,-0.09 1.06,0.62 a 12.36,12.36 0 0 1 1.51,4 c 0,0.44 -0.8,1.33 -0.71,0.53 0.09,-0.8 -0.88,-2.12 -0.88,-2.74 0,-0.62 -1.15,-1.93 -0.98,-2.41 z"
       transform="translate(-7144.21,-7143.98)"
       id="path223" />
    <path
       class="cls-15"
       d="m 7217.45,7179.36 c 1,0 1.33,4.33 1.15,5.74 -0.18,1.41 -1.06,1.51 -1,1.06 a 43.76,43.76 0 0 0 -0.26,-5.74 c -0.15,-0.62 -0.34,-1.06 0.11,-1.06 z"
       transform="translate(-7144.21,-7143.98)"
       id="path225" />
    <path
       class="cls-15"
       d="m 7190.2,7160.15 a 2.85,2.85 0 0 1 1.67,0.24 c 0.75,0.4 4.88,3.66 4.88,3.66 0,0 1.92,1.09 1.8,1.37 -0.12,0.28 0.13,0.68 -0.37,0.54 -0.5,-0.14 -4.65,-3.71 -5.2,-4 a 7.65,7.65 0 0 0 -1.65,-0.9 c -0.44,-0.06 -1.47,-0.59 -1.13,-0.91 z"
       transform="translate(-7144.21,-7143.98)"
       id="path227" />
    <path
       class="cls-12"
       d="m 7187,7162.58 c 0,0 0.78,-0.78 2.64,-0.29 a 21.26,21.26 0 0 1 3,1 c 0,0 0,0.75 -0.45,0.53 a 16.88,16.88 0 0 0 -2.8,-1.14 c -0.65,-0.1 -0.86,0.32 -1.68,0.35 -0.46,0.05 -0.57,-0.14 -0.71,-0.45 z"
       transform="translate(-7144.21,-7143.98)"
       id="path229" />
    <path
       class="cls-12"
       d="m 7166.43,7194.78 a 28,28 0 0 0 1.76,3.89 c 0.54,0.7 1.86,1.14 1.68,1.76 -0.18,0.62 -0.44,0.62 -0.88,0.09 a 18.47,18.47 0 0 1 -3,-5.3 c -0.71,-2.3 0.44,-0.44 0.44,-0.44 z"
       transform="translate(-7144.21,-7143.98)"
       id="path231" />
    <path
       class="cls-15"
       d="m 7165.63,7198.67 c 1,0.23 1.31,2.06 3.45,3.71 2.3,1.76 3.71,1.59 4,2 0.29,0.41 0.09,0.88 -0.7,0.71 a 14.78,14.78 0 0 1 -5.22,-3.45 c -1.09,-1.38 -2.68,-3.24 -1.53,-2.97 z"
       transform="translate(-7144.21,-7143.98)"
       id="path233" />
    <path
       class="cls-2"
       d="m 7168.48,7193.74 a 20.25,20.25 0 0 0 0.72,2.79 c 0.27,0.53 1.11,1 0.91,1.37 -0.2,0.37 -0.37,0.35 -0.6,0 a 12.43,12.43 0 0 1 -1.38,-3.87 c -0.19,-1.66 0.35,-0.29 0.35,-0.29 z"
       transform="translate(-7144.21,-7143.98)"
       id="path235" />
    <path
       class="cls-2"
       d="m 7216.61,7183.62 c 0,0 0.29,0.15 0.29,0.87 a 10.34,10.34 0 0 1 -1.12,3.14 c -0.22,0.28 -1.11,0.46 -0.67,0 0.44,-0.46 0.56,-1.72 0.87,-2.1 0.31,-0.38 0.27,-1.66 0.63,-1.91 z"
       transform="translate(-7144.21,-7143.98)"
       id="path237" />
  </g>
</svg>
